<mxfile host="app.diagrams.net" modified="2024-05-23T13:45:54.659Z" agent="Mozilla/5.0 (Windows NT 10.0; Win64; x64) AppleWebKit/537.36 (KHTML, like Gecko) Chrome/121.0.0.0 Safari/537.36" etag="6R1QvKQVgi3CDdF25z-E" version="24.4.6" type="device">
  <diagram name="Página-1" id="_JHiyKK1N1-WK97W20OB">
    <mxGraphModel dx="1434" dy="782" grid="1" gridSize="10" guides="1" tooltips="1" connect="1" arrows="1" fold="1" page="1" pageScale="1" pageWidth="827" pageHeight="1169" math="0" shadow="0">
      <root>
        <mxCell id="0" />
        <mxCell id="1" parent="0" />
        <mxCell id="ZgXv1dTmnB8srRf2k8OK-2" value="" style="edgeStyle=orthogonalEdgeStyle;rounded=0;orthogonalLoop=1;jettySize=auto;html=1;" edge="1" parent="1" source="U8zNz20dH0HQMJo_j1w7-1" target="ZgXv1dTmnB8srRf2k8OK-1">
          <mxGeometry relative="1" as="geometry" />
        </mxCell>
        <mxCell id="U8zNz20dH0HQMJo_j1w7-1" value="&lt;font style=&quot;vertical-align: inherit;&quot;&gt;&lt;font style=&quot;vertical-align: inherit;&quot;&gt;Entrar no app&lt;/font&gt;&lt;/font&gt;" style="ellipse;whiteSpace=wrap;html=1;fillColor=#f8cecc;strokeColor=#b85450;sketch=1;curveFitting=1;jiggle=2;" parent="1" vertex="1">
          <mxGeometry x="90" y="40" width="120" height="80" as="geometry" />
        </mxCell>
        <mxCell id="ZgXv1dTmnB8srRf2k8OK-4" value="" style="edgeStyle=orthogonalEdgeStyle;rounded=0;orthogonalLoop=1;jettySize=auto;html=1;" edge="1" parent="1" source="ZgXv1dTmnB8srRf2k8OK-1" target="ZgXv1dTmnB8srRf2k8OK-3">
          <mxGeometry relative="1" as="geometry" />
        </mxCell>
        <mxCell id="ZgXv1dTmnB8srRf2k8OK-1" value="&lt;font style=&quot;vertical-align: inherit;&quot;&gt;&lt;font style=&quot;vertical-align: inherit;&quot;&gt;&lt;font style=&quot;vertical-align: inherit;&quot;&gt;&lt;font style=&quot;vertical-align: inherit;&quot;&gt;Clicar em criar novo&lt;/font&gt;&lt;/font&gt;&lt;/font&gt;&lt;/font&gt;&lt;div&gt;usuário&lt;/div&gt;" style="rounded=0;whiteSpace=wrap;html=1;fillColor=#dae8fc;strokeColor=#6c8ebf;glass=1;" vertex="1" parent="1">
          <mxGeometry x="90" y="170" width="120" height="60" as="geometry" />
        </mxCell>
        <mxCell id="ZgXv1dTmnB8srRf2k8OK-6" value="" style="edgeStyle=orthogonalEdgeStyle;rounded=0;orthogonalLoop=1;jettySize=auto;html=1;" edge="1" parent="1" source="ZgXv1dTmnB8srRf2k8OK-3" target="ZgXv1dTmnB8srRf2k8OK-5">
          <mxGeometry relative="1" as="geometry" />
        </mxCell>
        <mxCell id="ZgXv1dTmnB8srRf2k8OK-3" value="Nome do usuário" style="rounded=0;whiteSpace=wrap;html=1;fillColor=#dae8fc;strokeColor=#6c8ebf;glass=1;" vertex="1" parent="1">
          <mxGeometry x="90" y="280" width="120" height="60" as="geometry" />
        </mxCell>
        <mxCell id="ZgXv1dTmnB8srRf2k8OK-8" value="" style="edgeStyle=orthogonalEdgeStyle;rounded=0;orthogonalLoop=1;jettySize=auto;html=1;" edge="1" parent="1" source="ZgXv1dTmnB8srRf2k8OK-5" target="ZgXv1dTmnB8srRf2k8OK-7">
          <mxGeometry relative="1" as="geometry" />
        </mxCell>
        <mxCell id="ZgXv1dTmnB8srRf2k8OK-5" value="Colocar E-mail" style="rounded=0;whiteSpace=wrap;html=1;fillColor=#dae8fc;strokeColor=#6c8ebf;glass=1;" vertex="1" parent="1">
          <mxGeometry x="90" y="390" width="120" height="60" as="geometry" />
        </mxCell>
        <mxCell id="ZgXv1dTmnB8srRf2k8OK-10" value="" style="edgeStyle=orthogonalEdgeStyle;rounded=0;orthogonalLoop=1;jettySize=auto;html=1;" edge="1" parent="1" source="ZgXv1dTmnB8srRf2k8OK-7" target="ZgXv1dTmnB8srRf2k8OK-9">
          <mxGeometry relative="1" as="geometry" />
        </mxCell>
        <mxCell id="ZgXv1dTmnB8srRf2k8OK-11" value="SIM" style="edgeLabel;html=1;align=center;verticalAlign=middle;resizable=0;points=[];" vertex="1" connectable="0" parent="ZgXv1dTmnB8srRf2k8OK-10">
          <mxGeometry x="-0.0571" relative="1" as="geometry">
            <mxPoint as="offset" />
          </mxGeometry>
        </mxCell>
        <mxCell id="ZgXv1dTmnB8srRf2k8OK-14" value="" style="edgeStyle=orthogonalEdgeStyle;rounded=0;orthogonalLoop=1;jettySize=auto;html=1;" edge="1" parent="1" source="ZgXv1dTmnB8srRf2k8OK-7" target="ZgXv1dTmnB8srRf2k8OK-13">
          <mxGeometry relative="1" as="geometry" />
        </mxCell>
        <mxCell id="ZgXv1dTmnB8srRf2k8OK-15" value="NÃO" style="edgeLabel;html=1;align=center;verticalAlign=middle;resizable=0;points=[];" vertex="1" connectable="0" parent="ZgXv1dTmnB8srRf2k8OK-14">
          <mxGeometry x="-0.12" relative="1" as="geometry">
            <mxPoint as="offset" />
          </mxGeometry>
        </mxCell>
        <mxCell id="ZgXv1dTmnB8srRf2k8OK-7" value="E-mail já&lt;div&gt;cadastrado?&lt;/div&gt;" style="rhombus;whiteSpace=wrap;html=1;fillColor=#e1d5e7;strokeColor=#9673a6;sketch=1;curveFitting=1;jiggle=2;" vertex="1" parent="1">
          <mxGeometry x="100" y="500" width="100" height="100" as="geometry" />
        </mxCell>
        <mxCell id="ZgXv1dTmnB8srRf2k8OK-18" value="" style="edgeStyle=orthogonalEdgeStyle;rounded=0;orthogonalLoop=1;jettySize=auto;html=1;" edge="1" parent="1" source="ZgXv1dTmnB8srRf2k8OK-9" target="ZgXv1dTmnB8srRf2k8OK-17">
          <mxGeometry relative="1" as="geometry" />
        </mxCell>
        <mxCell id="ZgXv1dTmnB8srRf2k8OK-9" value="Logar E-mail" style="rounded=0;whiteSpace=wrap;html=1;fillColor=#dae8fc;strokeColor=#6c8ebf;glass=1;" vertex="1" parent="1">
          <mxGeometry x="270" y="520" width="120" height="60" as="geometry" />
        </mxCell>
        <mxCell id="ZgXv1dTmnB8srRf2k8OK-20" value="" style="edgeStyle=orthogonalEdgeStyle;rounded=0;orthogonalLoop=1;jettySize=auto;html=1;" edge="1" parent="1" source="ZgXv1dTmnB8srRf2k8OK-13" target="ZgXv1dTmnB8srRf2k8OK-19">
          <mxGeometry relative="1" as="geometry" />
        </mxCell>
        <mxCell id="ZgXv1dTmnB8srRf2k8OK-21" value="NÃO" style="edgeLabel;html=1;align=center;verticalAlign=middle;resizable=0;points=[];" vertex="1" connectable="0" parent="ZgXv1dTmnB8srRf2k8OK-20">
          <mxGeometry x="-0.0857" y="-1" relative="1" as="geometry">
            <mxPoint as="offset" />
          </mxGeometry>
        </mxCell>
        <mxCell id="ZgXv1dTmnB8srRf2k8OK-28" value="" style="edgeStyle=orthogonalEdgeStyle;rounded=0;orthogonalLoop=1;jettySize=auto;html=1;" edge="1" parent="1" source="ZgXv1dTmnB8srRf2k8OK-13" target="ZgXv1dTmnB8srRf2k8OK-27">
          <mxGeometry relative="1" as="geometry" />
        </mxCell>
        <mxCell id="ZgXv1dTmnB8srRf2k8OK-29" value="SIM" style="edgeLabel;html=1;align=center;verticalAlign=middle;resizable=0;points=[];" vertex="1" connectable="0" parent="ZgXv1dTmnB8srRf2k8OK-28">
          <mxGeometry x="-0.2333" y="1" relative="1" as="geometry">
            <mxPoint as="offset" />
          </mxGeometry>
        </mxCell>
        <mxCell id="ZgXv1dTmnB8srRf2k8OK-13" value="O login está&lt;div&gt;correto?&lt;/div&gt;" style="rhombus;whiteSpace=wrap;html=1;fillColor=#e1d5e7;strokeColor=#9673a6;sketch=1;curveFitting=1;jiggle=2;" vertex="1" parent="1">
          <mxGeometry x="100" y="700" width="100" height="100" as="geometry" />
        </mxCell>
        <mxCell id="ZgXv1dTmnB8srRf2k8OK-17" value="Senha correta?" style="rhombus;whiteSpace=wrap;html=1;fillColor=#e1d5e7;strokeColor=#9673a6;sketch=1;curveFitting=1;jiggle=2;" vertex="1" parent="1">
          <mxGeometry x="450" y="500" width="100" height="100" as="geometry" />
        </mxCell>
        <mxCell id="ZgXv1dTmnB8srRf2k8OK-26" value="" style="edgeStyle=orthogonalEdgeStyle;rounded=0;orthogonalLoop=1;jettySize=auto;html=1;" edge="1" parent="1" source="ZgXv1dTmnB8srRf2k8OK-19" target="ZgXv1dTmnB8srRf2k8OK-25">
          <mxGeometry relative="1" as="geometry" />
        </mxCell>
        <mxCell id="ZgXv1dTmnB8srRf2k8OK-19" value="Esqueceu a senha" style="rounded=0;whiteSpace=wrap;html=1;glass=1;fillColor=#dae8fc;strokeColor=#6c8ebf;" vertex="1" parent="1">
          <mxGeometry x="270" y="720" width="120" height="60" as="geometry" />
        </mxCell>
        <mxCell id="ZgXv1dTmnB8srRf2k8OK-22" value="" style="endArrow=classic;html=1;rounded=0;exitX=1;exitY=0.5;exitDx=0;exitDy=0;entryX=0.5;entryY=1;entryDx=0;entryDy=0;" edge="1" parent="1" source="ZgXv1dTmnB8srRf2k8OK-19" target="ZgXv1dTmnB8srRf2k8OK-17">
          <mxGeometry width="50" height="50" relative="1" as="geometry">
            <mxPoint x="390" y="630" as="sourcePoint" />
            <mxPoint x="440" y="580" as="targetPoint" />
            <Array as="points">
              <mxPoint x="500" y="750" />
            </Array>
          </mxGeometry>
        </mxCell>
        <mxCell id="ZgXv1dTmnB8srRf2k8OK-24" value="" style="endArrow=classic;html=1;rounded=0;entryX=0;entryY=0.5;entryDx=0;entryDy=0;" edge="1" parent="1">
          <mxGeometry width="50" height="50" relative="1" as="geometry">
            <mxPoint x="170" y="650" as="sourcePoint" />
            <mxPoint x="270" y="650" as="targetPoint" />
          </mxGeometry>
        </mxCell>
        <mxCell id="ZgXv1dTmnB8srRf2k8OK-25" value="Criar uma senha&lt;div&gt;nova&lt;/div&gt;" style="text;html=1;align=center;verticalAlign=middle;resizable=0;points=[];autosize=1;strokeColor=none;fillColor=none;" vertex="1" parent="1">
          <mxGeometry x="275" y="630" width="110" height="40" as="geometry" />
        </mxCell>
        <mxCell id="ZgXv1dTmnB8srRf2k8OK-31" value="" style="edgeStyle=orthogonalEdgeStyle;rounded=0;orthogonalLoop=1;jettySize=auto;html=1;" edge="1" parent="1" source="ZgXv1dTmnB8srRf2k8OK-27" target="ZgXv1dTmnB8srRf2k8OK-30">
          <mxGeometry relative="1" as="geometry" />
        </mxCell>
        <mxCell id="ZgXv1dTmnB8srRf2k8OK-27" value="Criar conta" style="rounded=0;whiteSpace=wrap;html=1;fillColor=#dae8fc;strokeColor=#6c8ebf;glass=1;" vertex="1" parent="1">
          <mxGeometry x="90" y="860" width="120" height="60" as="geometry" />
        </mxCell>
        <mxCell id="ZgXv1dTmnB8srRf2k8OK-33" value="" style="edgeStyle=orthogonalEdgeStyle;rounded=0;orthogonalLoop=1;jettySize=auto;html=1;" edge="1" parent="1" source="ZgXv1dTmnB8srRf2k8OK-30" target="ZgXv1dTmnB8srRf2k8OK-32">
          <mxGeometry relative="1" as="geometry" />
        </mxCell>
        <mxCell id="ZgXv1dTmnB8srRf2k8OK-30" value="Enviar E-mail de&lt;div&gt;verificação&lt;/div&gt;" style="rounded=0;whiteSpace=wrap;html=1;fillColor=#dae8fc;strokeColor=#6c8ebf;glass=1;" vertex="1" parent="1">
          <mxGeometry x="90" y="970" width="120" height="60" as="geometry" />
        </mxCell>
        <mxCell id="ZgXv1dTmnB8srRf2k8OK-36" value="" style="edgeStyle=orthogonalEdgeStyle;rounded=0;orthogonalLoop=1;jettySize=auto;html=1;" edge="1" parent="1" source="ZgXv1dTmnB8srRf2k8OK-32" target="ZgXv1dTmnB8srRf2k8OK-35">
          <mxGeometry relative="1" as="geometry" />
        </mxCell>
        <mxCell id="ZgXv1dTmnB8srRf2k8OK-32" value="Verificar E-mail" style="shape=document;whiteSpace=wrap;html=1;boundedLbl=1;fillColor=#d5e8d4;strokeColor=#82b366;shadow=1;" vertex="1" parent="1">
          <mxGeometry x="265" y="960" width="120" height="80" as="geometry" />
        </mxCell>
        <mxCell id="ZgXv1dTmnB8srRf2k8OK-38" value="" style="edgeStyle=orthogonalEdgeStyle;rounded=0;orthogonalLoop=1;jettySize=auto;html=1;" edge="1" parent="1" source="ZgXv1dTmnB8srRf2k8OK-35" target="ZgXv1dTmnB8srRf2k8OK-37">
          <mxGeometry relative="1" as="geometry" />
        </mxCell>
        <mxCell id="ZgXv1dTmnB8srRf2k8OK-39" value="SIM" style="edgeLabel;html=1;align=center;verticalAlign=middle;resizable=0;points=[];" vertex="1" connectable="0" parent="ZgXv1dTmnB8srRf2k8OK-38">
          <mxGeometry x="-0.08" y="-1" relative="1" as="geometry">
            <mxPoint as="offset" />
          </mxGeometry>
        </mxCell>
        <mxCell id="ZgXv1dTmnB8srRf2k8OK-41" value="" style="edgeStyle=orthogonalEdgeStyle;rounded=0;orthogonalLoop=1;jettySize=auto;html=1;" edge="1" parent="1" source="ZgXv1dTmnB8srRf2k8OK-35" target="ZgXv1dTmnB8srRf2k8OK-40">
          <mxGeometry relative="1" as="geometry" />
        </mxCell>
        <mxCell id="ZgXv1dTmnB8srRf2k8OK-35" value="Foi sucedido?" style="rhombus;whiteSpace=wrap;html=1;fillColor=#e1d5e7;strokeColor=#9673a6;sketch=1;curveFitting=1;jiggle=2;" vertex="1" parent="1">
          <mxGeometry x="450" y="950" width="100" height="100" as="geometry" />
        </mxCell>
        <mxCell id="ZgXv1dTmnB8srRf2k8OK-37" value="Fim" style="ellipse;whiteSpace=wrap;html=1;fillColor=#f8cecc;strokeColor=#b85450;sketch=1;curveFitting=1;jiggle=2;" vertex="1" parent="1">
          <mxGeometry x="440" y="1100" width="120" height="80" as="geometry" />
        </mxCell>
        <mxCell id="ZgXv1dTmnB8srRf2k8OK-40" value="Investigar E-mail" style="rounded=0;whiteSpace=wrap;html=1;fillColor=#dae8fc;strokeColor=#6c8ebf;glass=1;" vertex="1" parent="1">
          <mxGeometry x="610" y="970" width="120" height="60" as="geometry" />
        </mxCell>
        <mxCell id="ZgXv1dTmnB8srRf2k8OK-44" value="" style="endArrow=classic;html=1;rounded=0;exitX=1;exitY=0.5;exitDx=0;exitDy=0;" edge="1" parent="1" source="ZgXv1dTmnB8srRf2k8OK-27">
          <mxGeometry width="50" height="50" relative="1" as="geometry">
            <mxPoint x="390" y="830" as="sourcePoint" />
            <mxPoint x="600" y="560" as="targetPoint" />
            <Array as="points">
              <mxPoint x="600" y="890" />
            </Array>
          </mxGeometry>
        </mxCell>
        <mxCell id="ZgXv1dTmnB8srRf2k8OK-45" value="SIM" style="text;html=1;align=center;verticalAlign=middle;resizable=0;points=[];autosize=1;strokeColor=none;fillColor=none;" vertex="1" parent="1">
          <mxGeometry x="580" y="520" width="40" height="30" as="geometry" />
        </mxCell>
      </root>
    </mxGraphModel>
  </diagram>
</mxfile>
